<?xml version="1.0" encoding="utf-8"?>
<!-- Generator: Adobe Illustrator 22.0.1, SVG Export Plug-In . SVG Version: 6.00 Build 0)  -->
<svg version="1.1" id="Слой_1" xmlns="http://www.w3.org/2000/svg" xmlns:xlink="http://www.w3.org/1999/xlink" x="0px" y="0px"
	 viewBox="0 0 180.4 35.5" style="enable-background:new 0 0 180.4 35.5;" xml:space="preserve">
<style type="text/css">
	.st0{fill-rule:evenodd;clip-rule:evenodd;fill:#FFFFFF;}
	.st1{fill:#FFFFFF;}
</style>
<polygon class="st0" points="4.1,10.1 4.1,7.1 14.8,1.6 18.6,8.2 "/>
<polygon class="st0" points="10.4,11.6 10.4,24.1 12.2,25.1 15.5,19.3 19.1,25.5 14.8,32.9 4.1,27.4 4.1,15.4 -0.3,14 3.4,13.1 
	7,12.3 "/>
<polygon class="st0" points="30.1,25.1 31.9,24.1 31.9,10.4 30.1,9.4 21.1,24.9 13.1,11 19.4,9.5 21.1,12.5 23.4,8.7 34.7,6.1 
	24,7.5 27.5,1.6 38.2,7.1 38.2,27.4 27.5,32.9 23.2,25.5 26.7,19.3 "/>
<rect x="46.6" y="-0.2" class="st0" width="1" height="34.9"/>
<path class="st0" d="M162.1,5.3h-6.9l8.4,8.1l-8.5,8.2h7.1l4.9-4.8l5,4.8h7.1L162.1,5.3L162.1,5.3z M148.6,5.3v16.3h5.2V5.3H148.6
	L148.6,5.3z M126.6,21.5h5v-4.1h7c0.5,0,0.9,0,1.2,0c0.3,0,0.6,0,0.8,0.1c0.2,0,0.3,0.1,0.5,0.1c0.1,0.1,0.2,0.1,0.3,0.2
	c0.1,0.1,0.2,0.3,0.3,0.5c0.1,0.2,0.1,0.5,0.1,0.9c0,0.4,0,0.9,0,1.5v0.9h4.9V20c0-0.9,0-1.7-0.1-2.3c-0.1-0.6-0.2-1.1-0.4-1.4
	c-0.2-0.3-0.5-0.6-0.9-0.7c-0.4-0.2-0.9-0.3-1.5-0.3c0.3,0,0.6-0.1,0.9-0.2c0.2-0.1,0.4-0.1,0.6-0.2c0.2-0.1,0.3-0.2,0.5-0.3
	c0.2-0.2,0.4-0.4,0.5-0.6c0.1-0.2,0.2-0.5,0.3-0.8c0.1-0.3,0.1-0.7,0.2-1.1c0-0.4,0-0.9,0-1.5c0-0.7,0-1.3-0.1-1.8
	c-0.1-0.5-0.1-0.9-0.3-1.3c-0.1-0.4-0.3-0.7-0.5-0.9c-0.2-0.2-0.5-0.5-0.8-0.7c-0.2-0.1-0.3-0.2-0.5-0.3c-0.1-0.1-0.3-0.1-0.5-0.2
	c-0.2,0-0.4-0.1-0.7-0.1c-0.3,0-0.6,0-1.1-0.1c-0.4,0-1,0-1.6,0c-0.7,0-1.4,0-2.4,0h-12V21.5L126.6,21.5z M131.6,13.3v-4h7
	c0.6,0,1,0,1.3,0c0.3,0,0.6,0,0.7,0c0.2,0,0.3,0,0.4,0.1c0.1,0,0.2,0.1,0.3,0.1c0.2,0.1,0.4,0.3,0.5,0.6c0.1,0.3,0.2,0.7,0.2,1.2
	c0,0.3,0,0.6-0.1,0.9c0,0.2-0.1,0.4-0.2,0.6c-0.1,0.1-0.2,0.3-0.4,0.4c-0.1,0-0.1,0.1-0.2,0.1c-0.1,0-0.1,0-0.2,0.1
	c-0.1,0-0.2,0-0.4,0c-0.2,0-0.4,0-0.7,0c-0.3,0-0.7,0-1.2,0H131.6L131.6,13.3z M105,5.3v4.2h7.3v12.1h5.2V9.4h7.3V5.3H105L105,5.3z
	 M102.7,21.5l-1.4-2.8H90.6l-1.4,2.8h-5.7l8.6-16.3h7.7l8.5,16.3H102.7L102.7,21.5z M99.6,15.2L96.4,9h-1l-3.1,6.2H99.6L99.6,15.2z
	 M55.2,5.3v16.3h4.9L59.9,9.4h0.9L67,21.5h4.1l6.1-12.2H78l-0.1,12.2h4.9V5.3h-8.9L69,15.8L64.2,5.3H55.2z"/>
<path class="st1" d="M55.1,24.6v4.6h1.4l0-3.5h0.2l1.7,3.5h1.2l1.7-3.5h0.2l0,3.5h1.4v-4.6h-2.5l-1.4,3l-1.4-3H55.1L55.1,24.6z
	 M67.7,24.5c-0.4,0-0.7,0-1,0c-0.3,0-0.5,0-0.7,0c-0.2,0-0.3,0-0.5,0.1c-0.1,0-0.2,0.1-0.3,0.1c-0.1,0-0.2,0.1-0.2,0.1
	c-0.1,0.1-0.2,0.1-0.2,0.3c-0.1,0.1-0.1,0.2-0.1,0.4c0,0.2-0.1,0.3-0.1,0.6c0,0.2,0,0.5,0,0.8c0,0.3,0,0.6,0,0.9
	c0,0.2,0,0.4,0.1,0.6c0,0.2,0.1,0.3,0.1,0.4c0.1,0.1,0.1,0.2,0.2,0.3c0.1,0.1,0.1,0.1,0.2,0.1c0.1,0,0.2,0.1,0.3,0.1
	c0.1,0,0.3,0,0.5,0.1c0.2,0,0.4,0,0.7,0c0.3,0,0.6,0,1,0c0.4,0,0.7,0,1,0c0.3,0,0.5,0,0.7,0c0.2,0,0.3,0,0.5-0.1
	c0.1,0,0.2-0.1,0.3-0.1s0.2-0.1,0.2-0.1c0.1-0.1,0.2-0.2,0.2-0.3c0.1-0.1,0.1-0.2,0.1-0.4c0-0.2,0.1-0.3,0.1-0.6c0-0.2,0-0.5,0-0.8
	c0-0.3,0-0.6,0-0.8c0-0.2,0-0.4-0.1-0.6c0-0.2-0.1-0.3-0.1-0.4c-0.1-0.1-0.1-0.2-0.2-0.2c-0.1-0.1-0.1-0.1-0.2-0.1
	c-0.1,0-0.2-0.1-0.3-0.1c-0.1,0-0.3,0-0.5-0.1c-0.2,0-0.4,0-0.7,0C68.4,24.5,68,24.5,67.7,24.5L67.7,24.5z M67.7,25.7
	c0.3,0,0.5,0,0.7,0c0.2,0,0.3,0,0.4,0c0.1,0,0.2,0,0.3,0c0.1,0,0.1,0,0.2,0.1c0,0,0.1,0.1,0.1,0.1c0,0.1,0.1,0.1,0.1,0.2
	c0,0.1,0,0.2,0.1,0.3c0,0.1,0,0.3,0,0.5c0,0.2,0,0.3,0,0.4c0,0.1,0,0.2-0.1,0.3c0,0.1-0.1,0.1-0.1,0.2c0,0-0.1,0.1-0.1,0.1
	c0,0-0.1,0-0.2,0c-0.1,0-0.2,0-0.3,0c-0.1,0-0.2,0-0.4,0c-0.2,0-0.3,0-0.6,0c-0.2,0-0.4,0-0.6,0c-0.2,0-0.3,0-0.4,0
	c-0.1,0-0.2,0-0.3,0c-0.1,0-0.1,0-0.2,0c0,0-0.1,0-0.1-0.1c0,0-0.1-0.1-0.1-0.1c0,0,0-0.1-0.1-0.2c0-0.1,0-0.1,0-0.2
	c0-0.1,0-0.2,0-0.4c0-0.2,0-0.4,0-0.5c0-0.1,0-0.2,0-0.3c0-0.1,0-0.2,0.1-0.2c0,0,0.1-0.1,0.1-0.1c0,0,0.1-0.1,0.2-0.1
	c0.1,0,0.2,0,0.3,0c0.1,0,0.3,0,0.4,0C67.2,25.7,67.4,25.7,67.7,25.7L67.7,25.7z M72.2,24.6v1.2h2.1v3.4h1.5v-3.4h2.1v-1.2H72.2
	L72.2,24.6z M82.3,24.5c-0.4,0-0.7,0-1,0c-0.3,0-0.5,0-0.7,0c-0.2,0-0.3,0-0.5,0.1c-0.1,0-0.2,0.1-0.3,0.1c-0.1,0-0.2,0.1-0.2,0.1
	c-0.1,0.1-0.2,0.1-0.2,0.3c-0.1,0.1-0.1,0.2-0.1,0.4c0,0.2-0.1,0.3-0.1,0.6c0,0.2,0,0.5,0,0.8c0,0.3,0,0.6,0,0.9
	c0,0.2,0,0.4,0.1,0.6c0,0.2,0.1,0.3,0.1,0.4c0.1,0.1,0.1,0.2,0.2,0.3c0.1,0.1,0.1,0.1,0.2,0.1c0.1,0,0.2,0.1,0.3,0.1
	c0.1,0,0.3,0,0.5,0.1c0.2,0,0.4,0,0.7,0c0.3,0,0.6,0,1,0c0.4,0,0.7,0,1,0c0.3,0,0.5,0,0.7,0c0.2,0,0.3,0,0.5-0.1
	c0.1,0,0.2-0.1,0.3-0.1c0.1,0,0.2-0.1,0.2-0.1c0.1-0.1,0.2-0.2,0.2-0.3c0.1-0.1,0.1-0.2,0.1-0.4c0-0.2,0.1-0.3,0.1-0.6
	c0-0.2,0-0.5,0-0.8c0-0.3,0-0.6,0-0.8c0-0.2,0-0.4-0.1-0.6c0-0.2-0.1-0.3-0.1-0.4c-0.1-0.1-0.1-0.2-0.2-0.2
	c-0.1-0.1-0.1-0.1-0.2-0.1c-0.1,0-0.2-0.1-0.3-0.1c-0.1,0-0.3,0-0.5-0.1c-0.2,0-0.4,0-0.7,0C83,24.5,82.7,24.5,82.3,24.5L82.3,24.5z
	 M82.3,25.7c0.3,0,0.5,0,0.7,0c0.2,0,0.3,0,0.4,0c0.1,0,0.2,0,0.3,0c0.1,0,0.1,0,0.2,0.1c0,0,0.1,0.1,0.1,0.1c0,0.1,0.1,0.1,0.1,0.2
	c0,0.1,0,0.2,0.1,0.3c0,0.1,0,0.3,0,0.5c0,0.2,0,0.3,0,0.4c0,0.1,0,0.2-0.1,0.3c0,0.1-0.1,0.1-0.1,0.2c0,0-0.1,0.1-0.1,0.1
	c0,0-0.1,0-0.2,0c-0.1,0-0.2,0-0.3,0c-0.1,0-0.2,0-0.4,0c-0.2,0-0.3,0-0.6,0c-0.2,0-0.4,0-0.6,0c-0.2,0-0.3,0-0.4,0
	c-0.1,0-0.2,0-0.3,0c-0.1,0-0.1,0-0.2,0c0,0-0.1,0-0.1-0.1c0,0-0.1-0.1-0.1-0.1c0,0,0-0.1-0.1-0.2c0-0.1,0-0.1,0-0.2
	c0-0.1,0-0.2,0-0.4c0-0.2,0-0.4,0-0.5c0-0.1,0-0.2,0-0.3c0-0.1,0-0.2,0.1-0.2c0,0,0.1-0.1,0.1-0.1c0,0,0.1-0.1,0.2-0.1
	c0.1,0,0.2,0,0.3,0c0.1,0,0.3,0,0.4,0C81.8,25.7,82,25.7,82.3,25.7L82.3,25.7z M87,29.2h1.4V28h2c0.1,0,0.3,0,0.4,0
	c0.1,0,0.2,0,0.2,0c0.1,0,0.1,0,0.1,0c0,0,0.1,0,0.1,0.1c0,0,0.1,0.1,0.1,0.1c0,0.1,0,0.1,0,0.2c0,0.1,0,0.2,0,0.4v0.2h1.4v-0.4
	c0-0.3,0-0.5,0-0.6c0-0.2-0.1-0.3-0.1-0.4c-0.1-0.1-0.1-0.2-0.3-0.2c-0.1,0-0.3-0.1-0.4-0.1c0.1,0,0.2,0,0.2,0c0.1,0,0.1,0,0.2-0.1
	c0,0,0.1-0.1,0.1-0.1c0.1,0,0.1-0.1,0.1-0.2c0-0.1,0.1-0.1,0.1-0.2c0-0.1,0-0.2,0-0.3c0-0.1,0-0.3,0-0.4c0-0.2,0-0.4,0-0.5
	c0-0.1,0-0.3-0.1-0.4c0-0.1-0.1-0.2-0.1-0.3c-0.1-0.1-0.1-0.1-0.2-0.2c0,0-0.1-0.1-0.1-0.1c0,0-0.1,0-0.1-0.1c0,0-0.1,0-0.2,0
	c-0.1,0-0.2,0-0.3,0c-0.1,0-0.3,0-0.5,0c-0.2,0-0.4,0-0.7,0H87V29.2L87,29.2z M88.4,26.9v-1.1h2c0.2,0,0.3,0,0.4,0
	c0.1,0,0.2,0,0.2,0c0,0,0.1,0,0.1,0c0,0,0,0,0.1,0c0.1,0,0.1,0.1,0.1,0.2c0,0.1,0,0.2,0,0.3c0,0.1,0,0.2,0,0.2c0,0.1,0,0.1-0.1,0.2
	c0,0-0.1,0.1-0.1,0.1c0,0,0,0-0.1,0c0,0,0,0-0.1,0c0,0-0.1,0-0.1,0c-0.1,0-0.1,0-0.2,0c-0.1,0-0.2,0-0.3,0H88.4L88.4,26.9z
	 M98.7,27.4c0,0.1,0,0.2,0,0.3c0,0.1,0,0.1-0.1,0.2c0,0.1-0.1,0.1-0.1,0.1c-0.1,0-0.2,0-0.3,0.1c-0.1,0-0.3,0-0.4,0
	c-0.2,0-0.4,0-0.6,0c-0.2,0-0.5,0-0.6,0c-0.2,0-0.3,0-0.4,0c-0.1,0-0.2-0.1-0.3-0.1c-0.1-0.1-0.1-0.1-0.1-0.2c0-0.1,0-0.2-0.1-0.3
	c0-0.1,0-0.3,0-0.5c0-0.2,0-0.4,0-0.6c0-0.1,0-0.3,0.1-0.3c0-0.1,0.1-0.1,0.1-0.2c0,0,0.1-0.1,0.1-0.1c0.1,0,0.1,0,0.2,0
	c0.1,0,0.2,0,0.4,0c0.1,0,0.3,0,0.5,0c0.1,0,0.2,0,0.3,0c0.1,0,0.2,0,0.3,0c0.1,0,0.2,0,0.3,0c0.1,0,0.2,0,0.2,0c0.1,0,0.1,0,0.1,0
	c0,0,0.1,0,0.1,0.1c0,0,0,0.1,0,0.1c0,0,0,0.1,0,0.1c0,0.1,0,0.1,0,0.2h1.4V26c0-0.3,0-0.5-0.1-0.6c0-0.2-0.1-0.3-0.2-0.4
	c-0.1-0.1-0.2-0.2-0.3-0.3c-0.1,0-0.2-0.1-0.3-0.1c-0.1,0-0.2,0-0.4-0.1c-0.1,0-0.3,0-0.5,0c-0.2,0-0.5,0-0.8,0c-0.4,0-0.7,0-1,0
	c-0.3,0-0.6,0-0.8,0c-0.2,0-0.4,0-0.6,0.1c-0.2,0-0.3,0.1-0.4,0.1c-0.1,0.1-0.2,0.1-0.2,0.2c-0.1,0.1-0.1,0.2-0.2,0.3
	c0,0.1-0.1,0.1-0.1,0.2c0,0.1,0,0.2,0,0.3c0,0.1,0,0.3,0,0.5c0,0.2,0,0.4,0,0.7c0,0.3,0,0.5,0,0.7c0,0.2,0,0.3,0,0.4
	c0,0.2,0,0.3,0.1,0.4c0,0.1,0.1,0.2,0.2,0.3c0.1,0.1,0.2,0.2,0.3,0.2c0.1,0,0.2,0.1,0.3,0.1c0.1,0,0.2,0.1,0.4,0.1
	c0.1,0,0.3,0,0.5,0c0.2,0,0.4,0,0.7,0c0.3,0,0.6,0,0.9,0c0.3,0,0.5,0,0.7,0c0.2,0,0.4,0,0.5,0c0.2,0,0.3,0,0.4-0.1
	c0.1,0,0.2,0,0.3-0.1c0.2-0.1,0.3-0.1,0.4-0.2c0.1-0.1,0.2-0.2,0.2-0.4c0-0.2,0.1-0.4,0.1-0.6c0,0,0-0.1,0-0.1c0,0,0-0.1,0-0.1
	c0-0.1,0-0.1,0-0.2H98.7L98.7,27.4z M101.2,24.6l2.6,3v1.6h1.5v-1.6l2.5-3H106l-1.4,1.8l-1.5-1.8H101.2L101.2,24.6z M113.3,27.4
	c0,0.1,0,0.2,0,0.3c0,0.1,0,0.1-0.1,0.2c0,0.1-0.1,0.1-0.1,0.1c-0.1,0-0.2,0-0.3,0.1c-0.1,0-0.3,0-0.4,0c-0.2,0-0.4,0-0.6,0
	c-0.2,0-0.5,0-0.6,0c-0.2,0-0.3,0-0.4,0c-0.1,0-0.2-0.1-0.3-0.1c-0.1-0.1-0.1-0.1-0.1-0.2c0-0.1,0-0.2-0.1-0.3c0-0.1,0-0.3,0-0.5
	c0-0.2,0-0.4,0-0.6c0-0.1,0-0.3,0.1-0.3c0-0.1,0.1-0.1,0.1-0.2c0,0,0.1-0.1,0.1-0.1c0.1,0,0.1,0,0.2,0c0.1,0,0.2,0,0.4,0
	c0.1,0,0.3,0,0.5,0c0.1,0,0.2,0,0.3,0c0.1,0,0.2,0,0.3,0c0.1,0,0.2,0,0.3,0c0.1,0,0.2,0,0.2,0c0.1,0,0.1,0,0.1,0c0,0,0.1,0,0.1,0.1
	c0,0,0,0.1,0,0.1c0,0,0,0.1,0,0.1c0,0.1,0,0.1,0,0.2h1.4V26c0-0.3,0-0.5-0.1-0.6c0-0.2-0.1-0.3-0.2-0.4c-0.1-0.1-0.2-0.2-0.3-0.3
	c-0.1,0-0.2-0.1-0.3-0.1c-0.1,0-0.2,0-0.4-0.1c-0.1,0-0.3,0-0.5,0c-0.2,0-0.5,0-0.8,0c-0.4,0-0.7,0-1,0c-0.3,0-0.6,0-0.8,0
	c-0.2,0-0.4,0-0.6,0.1c-0.2,0-0.3,0.1-0.4,0.1c-0.1,0.1-0.2,0.1-0.2,0.2c-0.1,0.1-0.1,0.2-0.2,0.3c0,0.1-0.1,0.1-0.1,0.2
	c0,0.1,0,0.2,0,0.3c0,0.1,0,0.3,0,0.5c0,0.2,0,0.4,0,0.7c0,0.3,0,0.5,0,0.7c0,0.2,0,0.3,0,0.4c0,0.2,0,0.3,0.1,0.4
	c0,0.1,0.1,0.2,0.2,0.3c0.1,0.1,0.2,0.2,0.3,0.2c0.1,0,0.2,0.1,0.3,0.1c0.1,0,0.2,0.1,0.4,0.1c0.1,0,0.3,0,0.5,0c0.2,0,0.4,0,0.7,0
	c0.3,0,0.6,0,0.9,0c0.3,0,0.5,0,0.7,0c0.2,0,0.4,0,0.5,0c0.2,0,0.3,0,0.4-0.1c0.1,0,0.2,0,0.3-0.1c0.2-0.1,0.3-0.1,0.4-0.2
	c0.1-0.1,0.2-0.2,0.2-0.4c0-0.2,0.1-0.4,0.1-0.6c0,0,0-0.1,0-0.1c0,0,0-0.1,0-0.1c0-0.1,0-0.1,0-0.2H113.3L113.3,27.4z M116.2,24.6
	v4.6h4.8V28h-3.3v-3.4H116.2L116.2,24.6z M122.3,24.6v4.6h5.1v-1.1h-3.8v-0.7h3.5v-1h-3.5v-0.7h3.7v-1.1H122.3L122.3,24.6z
	 M130.7,24.6v4.6h1.5v-1.7h3.2v1.7h1.5v-4.6h-1.5v1.7h-3.2v-1.7H130.7L130.7,24.6z M138.5,24.6v4.6h5.1v-1.1h-3.8v-0.7h3.5v-1h-3.5
	v-0.7h3.7v-1.1H138.5L138.5,24.6z M145.1,24.6v4.6h4.8V28h-3.3v-3.4H145.1L145.1,24.6z M151.2,24.6v4.6h1.4l0-3.5h0.2l1.7,3.5h1.2
	l1.7-3.5h0.2l0,3.5h1.4v-4.6h-2.5l-1.4,3l-1.4-3H151.2L151.2,24.6z M160.7,24.6v4.6h5.1v-1.1h-3.8v-0.7h3.5v-1h-3.5v-0.7h3.7v-1.1
	H160.7L160.7,24.6z M167,24.6v1.2h2.1v3.4h1.5v-3.4h2.1v-1.2H167L167,24.6z M173.8,27.7v0.2c0,0.2,0,0.4,0,0.5
	c0,0.1,0.1,0.3,0.1,0.4c0.1,0.1,0.2,0.2,0.3,0.2c0.1,0,0.2,0.1,0.3,0.1c0.1,0,0.3,0.1,0.4,0.1c0.2,0,0.4,0,0.6,0c0.3,0,0.5,0,0.9,0
	c0.4,0,0.7,0,0.9,0c0.3,0,0.5,0,0.6,0c0.2,0,0.3,0,0.4,0c0.1,0,0.2,0,0.3-0.1c0.1-0.1,0.3-0.1,0.4-0.3c0.1-0.1,0.2-0.3,0.2-0.4
	c0-0.2,0.1-0.4,0.1-0.7c0-0.2,0-0.4,0-0.6c0-0.1-0.1-0.3-0.1-0.4c-0.1-0.1-0.2-0.2-0.3-0.2c-0.1,0-0.1-0.1-0.2-0.1
	c-0.1,0-0.2,0-0.2-0.1c-0.1,0-0.2,0-0.4,0c-0.1,0-0.3,0-0.5,0c-0.2,0-0.5,0-0.8,0c-0.3,0-0.5,0-0.6,0c-0.2,0-0.3,0-0.4,0
	c-0.1,0-0.2,0-0.3,0c-0.1,0-0.1,0-0.1,0c-0.1,0-0.1-0.1-0.1-0.1c0,0,0-0.1,0-0.2c0-0.1,0-0.1,0-0.2c0,0,0-0.1,0.1-0.1
	c0,0,0.1,0,0.2-0.1c0.1,0,0.2,0,0.4,0c0.2,0,0.4,0,0.6,0c0.2,0,0.4,0,0.5,0c0.1,0,0.3,0,0.4,0c0.1,0,0.2,0,0.2,0c0.1,0,0.1,0,0.1,0
	c0,0,0.1,0,0.1,0c0,0,0,0,0.1,0.1c0,0,0,0.1,0,0.1c0,0,0,0.1,0,0.2h1.4c0,0,0-0.1,0-0.1c0,0,0-0.1,0-0.1c0-0.2,0-0.3,0-0.5
	c0-0.1-0.1-0.2-0.1-0.3c-0.1-0.1-0.1-0.2-0.2-0.2c-0.1,0-0.2-0.1-0.3-0.1c-0.1,0-0.2-0.1-0.4-0.1c-0.2,0-0.4,0-0.6,0
	c-0.2,0-0.5,0-0.8,0c-0.3,0-0.6,0-0.9,0c-0.2,0-0.4,0-0.6,0c-0.2,0-0.3,0-0.4,0c-0.1,0-0.2,0-0.3,0.1c-0.1,0-0.2,0.1-0.2,0.1
	c-0.2,0.1-0.3,0.2-0.4,0.5c-0.1,0.2-0.1,0.5-0.1,0.8c0,0.2,0,0.4,0.1,0.6c0,0.2,0.1,0.3,0.2,0.4c0.1,0.1,0.2,0.1,0.3,0.2
	c0.1,0,0.2,0.1,0.4,0.1c0.2,0,0.3,0,0.6,0c0.1,0,0.1,0,0.2,0c0.1,0,0.2,0,0.4,0c0.2,0,0.3,0,0.5,0c0.2,0,0.3,0,0.5,0
	c0.1,0,0.3,0,0.4,0c0.1,0,0.2,0,0.2,0c0.1,0,0.3,0,0.3,0c0.1,0,0.1,0.1,0.2,0.1c0,0.1,0,0.1,0,0.2c0,0.1,0,0.2,0,0.2
	c0,0.1-0.1,0.1-0.1,0.1c0,0-0.1,0-0.1,0c0,0-0.1,0-0.1,0c-0.1,0-0.1,0-0.2,0c-0.1,0-0.2,0-0.4,0c-0.1,0-0.3,0-0.5,0
	c-0.2,0-0.4,0-0.5,0c-0.1,0-0.2,0-0.3,0c-0.1,0-0.2,0-0.2,0c-0.1,0-0.1,0-0.1,0c0,0-0.1,0-0.1,0c0,0-0.1,0-0.1-0.1c0,0,0-0.1,0-0.1
	c0-0.1,0-0.1,0-0.2H173.8z"/>
<polygon class="st0" points="172.1,5.3 178.9,5.3 174.2,9.9 167.3,9.9 "/>
</svg>
