<svg version="1.1" id="Слой_1" xmlns="http://www.w3.org/2000/svg" x="0" y="0" viewBox="0 0 139.8 25" xml:space="preserve"><style>.st1{fill-rule:evenodd;clip-rule:evenodd;fill:#ea1d25}</style><path d="M125.5 5.9h-5.7c1.2 1.1 2.3 2.3 3.5 3.4 1.2 1.1 2.3 2.3 3.5 3.4-1.2 1.1-6.5 6.3-7.7 7.5-1.2 1.1-2.4 2.3-3.6 3.4h5.9c.7-.7 1.4-1.3 2.1-2 .7-.7 5.5-5.4 6.2-6 .7.7 1.4 1.3 2.1 2 .7.7 1.4 1.3 2.1 2h5.9c-2.4-2.3-4.8-4.6-7.1-6.8-2.4-2.4-4.8-4.6-7.2-6.9zm-11.3 0h4.4v13.6h-4.4V5.9zM95.8 19.5h4.2v-3.4h6.9c.3 0 .5 0 .7.1.2 0 .3.1.4.1.1 0 .2.1.2.2.1.1.2.3.3.4.1.2.1.4.1.7v1.9h4.1v-1.3c0-.8 0-1.4-.1-1.9 0-.5-.2-.9-.3-1.2-.2-.3-.4-.5-.7-.6-.3-.1-.7-.2-1.3-.3.3 0 .5-.1.7-.1.2-.1.4-.1.5-.2.2-.1.3-.2.4-.3.2-.1.3-.3.4-.5.1-.2.2-.4.3-.7.1-.3.1-.6.2-.9v-1.3c0-.6 0-1.1-.1-1.5 0-.4-.1-.8-.2-1.1-.1-.3-.2-.6-.4-.8-.2-.2-.4-.4-.7-.5-.1-.1-.3-.2-.4-.2-.1-.1-.3-.1-.4-.2-.1 0-.3-.1-.6-.1H95.6v6.8c.2 2.4.2 4.7.2 6.9zm4.1-6.8V9.3h7.9c.1 0 .1 0 .2.1.2.1.3.2.4.5.1.2.1.6.1 1v.7c0 .2-.1.4-.2.5l-.3.3c-.1 0-.1.1-.2.1h-2.2c-1.8.2-3.7.2-5.7.2zM77.7 5.9v3.4h6.1v10.2h4.4V9.3h6.1V5.9H77.7zm-2 13.6c-.4-.8-.8-1.5-1.2-2.3h-9c-.4.8-.8 1.5-1.2 2.3h-4.8c1.2-2.3 2.4-4.6 3.6-6.8 1.2-2.3 2.4-4.6 3.6-6.8h6.5c1.2 2.3 2.4 4.6 3.6 6.8 1.2 2.3 2.4 4.6 3.6 6.8h-4.7zm-2.6-5.3c-.4-.9-.9-1.7-1.3-2.6-.4-.9-.9-1.7-1.3-2.6h-.8c-.4.9-.9 1.7-1.3 2.6-.4.9-.9 1.7-1.3 2.6h6zM35.8 5.9v13.6h4.1c0-1.7-.1-3.4-.1-5.1V9.3h.7c.9 1.7 1.7 3.4 2.6 5.1.9 1.7 1.7 3.4 2.6 5.1h3.5c.9-1.7 1.7-3.4 2.6-5.1.9-1.7 1.7-3.4 2.6-5.1h.7c0 1.7-.1 3.4-.1 5.1v5.1h4.1V5.9h-7.5c-.7 1.5-1.4 3-2 4.4s-1.4 3-2 4.4c-.7-1.5-1.4-3-2-4.4-.7-1.5-1.4-3-2-4.4h-7.8zm98.1 0l-4 3.8h5.8l3.9-3.8z" fill-rule="evenodd" clip-rule="evenodd" fill="#fff"/><path class="st1" d="M3.5 7.3V5.1L11.6.9l2.9 5z"/><path class="st1" d="M8.2 8.4v9.5l1.4.7 2.5-4.4 2.7 4.7-3.2 5.6-8.1-4.2v-9.1L.2 10.1 3 9.6 5.7 9l2.5-.6zm14.9 10.2l-2.5-4.4-2.7 4.7 3.2 5.6 8.1-4.2V5.1L21.1.9l-2.6 4.5 8.1-1.1L18 6.2l-1.7 2.9L15 6.8 10.3 8l6.1 10.5 6.8-11.7 1.4.7v10.4l-1.5.7z"/></svg>