<?xml version="1.0" encoding="utf-8"?>
<!-- Generator: Adobe Illustrator 22.0.1, SVG Export Plug-In . SVG Version: 6.00 Build 0)  -->
<svg version="1.1" id="Слой_1" xmlns="http://www.w3.org/2000/svg" xmlns:xlink="http://www.w3.org/1999/xlink" x="0px" y="0px"
	 viewBox="0 0 139.8 25" style="enable-background:new 0 0 139.8 25;" xml:space="preserve">
<style type="text/css">
	.st0{fill-rule:evenodd;clip-rule:evenodd;fill:#FFFFFF;}
	.st1{fill-rule:evenodd;clip-rule:evenodd;fill:#EA1D25;}
</style>
<path class="st0" d="M125.5,5.9c-1.9,0-3.8,0-5.7,0c1.2,1.1,2.3,2.3,3.5,3.4c1.2,1.1,2.3,2.3,3.5,3.4c-1.2,1.1-6.5,6.3-7.7,7.5
	c-1.2,1.1-2.4,2.3-3.6,3.4c2,0,4,0,5.9,0c0.7-0.7,1.4-1.3,2.1-2c0.7-0.7,5.5-5.4,6.2-6c0.7,0.7,1.4,1.3,2.1,2c0.7,0.7,1.4,1.3,2.1,2
	c2,0,4,0,5.9,0c-2.4-2.3-4.8-4.6-7.1-6.8C130.3,10.4,127.9,8.2,125.5,5.9L125.5,5.9z M114.2,5.9c1.4,0,2.9,0,4.4,0
	c0,2.3,0,4.6,0,6.8c0,2.3,0,4.6,0,6.8c-1.5,0-2.9,0-4.4,0c0-2.3,0-4.6,0-6.8C114.2,10.4,114.2,8.2,114.2,5.9L114.2,5.9z M95.8,19.5
	c1.4,0,2.8,0,4.2,0c0-0.6,0-1.2,0-1.7c0-0.6,0-1.2,0-1.7c2,0,3.9,0,5.9,0c0.4,0,0.8,0,1,0c0.3,0,0.5,0,0.7,0.1
	c0.2,0,0.3,0.1,0.4,0.1c0.1,0,0.2,0.1,0.2,0.2c0.1,0.1,0.2,0.3,0.3,0.4c0.1,0.2,0.1,0.4,0.1,0.7c0,0.3,0,0.7,0,1.2
	c0,0.2,0,0.5,0,0.7c1.4,0,2.7,0,4.1,0c0-0.4,0-0.8,0-1.3c0-0.8,0-1.4-0.1-1.9c0-0.5-0.2-0.9-0.3-1.2c-0.2-0.3-0.4-0.5-0.7-0.6
	c-0.3-0.1-0.7-0.2-1.3-0.3c0.3,0,0.5-0.1,0.7-0.1c0.2-0.1,0.4-0.1,0.5-0.2c0.2-0.1,0.3-0.2,0.4-0.3c0.2-0.1,0.3-0.3,0.4-0.5
	c0.1-0.2,0.2-0.4,0.3-0.7c0.1-0.3,0.1-0.6,0.2-0.9c0-0.4,0-0.8,0-1.3c0-0.6,0-1.1-0.1-1.5c0-0.4-0.1-0.8-0.2-1.1
	c-0.1-0.3-0.2-0.6-0.4-0.8c-0.2-0.2-0.4-0.4-0.7-0.5c-0.1-0.1-0.3-0.2-0.4-0.2c-0.1-0.1-0.3-0.1-0.4-0.2c-0.1,0-0.3-0.1-0.6-0.1
	c-0.2,0-0.5,0-0.9,0c-0.4,0-0.8,0-1.4,0c-0.6,0-1.2,0-2,0c-3.4,0-6.7,0-10.1,0c0,2.3,0,4.6,0,6.8C95.8,15,95.8,17.3,95.8,19.5
	L95.8,19.5z M99.9,12.7c0-1.1,0-2.2,0-3.4c2,0,3.9,0,5.9,0c0.5,0,0.8,0,1.1,0c0.3,0,0.5,0,0.6,0c0.1,0,0.2,0,0.3,0
	c0.1,0,0.1,0,0.2,0.1c0.2,0.1,0.3,0.2,0.4,0.5c0.1,0.2,0.1,0.6,0.1,1c0,0.3,0,0.5,0,0.7c0,0.2-0.1,0.4-0.2,0.5
	c-0.1,0.1-0.2,0.2-0.3,0.3c-0.1,0-0.1,0.1-0.2,0.1c0,0-0.1,0-0.2,0c-0.1,0-0.2,0-0.4,0c-0.2,0-0.4,0-0.6,0c-0.3,0-0.6,0-1,0
	C103.8,12.7,101.9,12.7,99.9,12.7L99.9,12.7z M77.7,5.9c0,0.6,0,1.2,0,1.7c0,0.6,0,1.2,0,1.7c2,0,4.1,0,6.1,0c0,1.7,0,3.4,0,5.1
	c0,1.7,0,3.4,0,5.1c1.4,0,2.9,0,4.4,0c0-1.7,0-3.4,0-5.1c0-1.7,0-3.4,0-5.1c2,0,4.1,0,6.1,0c0-0.6,0-1.2,0-1.7c0-0.6,0-1.2,0-1.7
	C88.7,5.9,83.2,5.9,77.7,5.9L77.7,5.9z M75.7,19.5c-0.4-0.8-0.8-1.5-1.2-2.3c-3,0-6,0-9,0c-0.4,0.8-0.8,1.5-1.2,2.3
	c-1.6,0-3.2,0-4.8,0c1.2-2.3,2.4-4.6,3.6-6.8c1.2-2.3,2.4-4.6,3.6-6.8c2.2,0,4.3,0,6.5,0c1.2,2.3,2.4,4.6,3.6,6.8
	c1.2,2.3,2.4,4.6,3.6,6.8C78.9,19.5,77.3,19.5,75.7,19.5L75.7,19.5z M73.1,14.2c-0.4-0.9-0.9-1.7-1.3-2.6c-0.4-0.9-0.9-1.7-1.3-2.6
	c-0.3,0-0.6,0-0.8,0c-0.4,0.9-0.9,1.7-1.3,2.6c-0.4,0.9-0.9,1.7-1.3,2.6C69,14.2,71,14.2,73.1,14.2L73.1,14.2z M35.8,5.9
	c0,2.3,0,4.6,0,6.8c0,2.3,0,4.6,0,6.8c1.4,0,2.7,0,4.1,0c0-1.7-0.1-3.4-0.1-5.1c0-1.7,0-3.4,0-5.1c0.2,0,0.5,0,0.7,0
	c0.9,1.7,1.7,3.4,2.6,5.1c0.9,1.7,1.7,3.4,2.6,5.1c1.2,0,2.3,0,3.5,0c0.9-1.7,1.7-3.4,2.6-5.1c0.9-1.7,1.7-3.4,2.6-5.1
	c0.2,0,0.5,0,0.7,0c0,1.7-0.1,3.4-0.1,5.1c0,1.7,0,3.4,0,5.1c1.4,0,2.7,0,4.1,0c0-2.3,0-4.6,0-6.8c0-2.3,0-4.6,0-6.8
	c-2.5,0-5,0-7.5,0c-0.7,1.5-1.4,3-2,4.4s-1.4,3-2,4.4c-0.7-1.5-1.4-3-2-4.4c-0.7-1.5-1.4-3-2-4.4C40.8,5.9,38.3,5.9,35.8,5.9z"/>
<polygon class="st0" points="133.9,5.9 129.9,9.7 135.7,9.7 139.6,5.9 "/>
<polygon class="st1" points="3.5,7.3 3.5,5.1 11.6,0.9 14.5,5.9 "/>
<path class="st1" d="M8.2,8.4v9.5l1.4,0.7l2.5-4.4l2.7,4.7l-3.2,5.6l-8.1-4.2v-9.1l-3.3-1.1L3,9.6L5.7,9l0,0L8.2,8.4L8.2,8.4z
	 M23.1,18.6l-2.5-4.4l-2.7,4.7l3.2,5.6l8.1-4.2V5.1l-8.1-4.2l-2.6,4.5l8.1-1.1l-8.6,1.9l-1.7,2.9l-1.3-2.3L10.3,8l6.1,10.5l6.8-11.7
	l1.4,0.7v10.4L23.1,18.6z"/>
</svg>
