<svg version="1.1" id="Слой_1" xmlns="http://www.w3.org/2000/svg" x="0" y="0" viewBox="0 0 180.4 35.5" xml:space="preserve"><style>.st0{fill-rule:evenodd;clip-rule:evenodd;fill:#fff}</style><path class="st0" d="M4.1 10.1v-3l10.7-5.5 3.8 6.6zm6.3 1.5v12.5l1.8 1 3.3-5.8 3.6 6.2-4.3 7.4-10.7-5.5v-12L-.3 14l3.7-.9 3.6-.8z"/><path class="st0" d="M30.1 25.1l1.8-1V10.4l-1.8-1-9 15.5-8-13.9 6.3-1.5 1.7 3 2.3-3.8 11.3-2.6L24 7.5l3.5-5.9 10.7 5.5v20.3l-10.7 5.5-4.3-7.4 3.5-6.2zM46.6-.2h1v34.9h-1zm115.5 5.5h-6.9l8.4 8.1-8.5 8.2h7.1l4.9-4.8 5 4.8h7.1L162.1 5.3zm-13.5 0v16.3h5.2V5.3h-5.2zm-22 16.2h5v-4.1h8.2c.3 0 .6 0 .8.1.2 0 .3.1.5.1.1.1.2.1.3.2.1.1.2.3.3.5.1.2.1.5.1.9v2.4h4.9V20c0-.9 0-1.7-.1-2.3-.1-.6-.2-1.1-.4-1.4-.2-.3-.5-.6-.9-.7-.4-.2-.9-.3-1.5-.3.3 0 .6-.1.9-.2.2-.1.4-.1.6-.2.2-.1.3-.2.5-.3.2-.2.4-.4.5-.6.1-.2.2-.5.3-.8.1-.3.1-.7.2-1.1v-1.5c0-.7 0-1.3-.1-1.8s-.1-.9-.3-1.3c-.1-.4-.3-.7-.5-.9-.2-.2-.5-.5-.8-.7-.2-.1-.3-.2-.5-.3-.1-.1-.3-.1-.5-.2-.2 0-.4-.1-.7-.1-.3 0-.6 0-1.1-.1h-16v16.3h.3zm5-8.2v-4h9c.2 0 .3 0 .4.1.1 0 .2.1.3.1.2.1.4.3.5.6.1.3.2.7.2 1.2 0 .3 0 .6-.1.9 0 .2-.1.4-.2.6-.1.1-.2.3-.4.4-.1 0-.1.1-.2.1s-.1 0-.2.1h-9.3v-.1zm-26.6-8v4.2h7.3v12.1h5.2V9.4h7.3V5.3H105zm-2.3 16.2l-1.4-2.8H90.6l-1.4 2.8h-5.7l8.6-16.3h7.7l8.5 16.3h-5.6zm-3.1-6.3L96.4 9h-1l-3.1 6.2h7.3zM55.2 5.3v16.3h4.9l-.2-12.2h.9L67 21.5h4.1l6.1-12.2h.8l-.1 12.2h4.9V5.3h-8.9L69 15.8 64.2 5.3h-9z"/><path d="M55.1 24.6v4.6h1.4v-3.5h.2l1.7 3.5h1.2l1.7-3.5h.2v3.5h1.4v-4.6h-2.5l-1.4 3-1.4-3h-2.5zm12.6-.1H66c-.2 0-.3 0-.5.1-.1 0-.2.1-.3.1-.1 0-.2.1-.2.1-.1.1-.2.1-.2.3-.1.1-.1.2-.1.4s-.1.3-.1.6v1.7c0 .2 0 .4.1.6 0 .2.1.3.1.4.1.1.1.2.2.3.1.1.1.1.2.1s.2.1.3.1c.1 0 .3 0 .5.1h3.4c.2 0 .3 0 .5-.1.1 0 .2-.1.3-.1s.2-.1.2-.1c.1-.1.2-.2.2-.3.1-.1.1-.2.1-.4s.1-.3.1-.6v-1.6c0-.2 0-.4-.1-.6 0-.2-.1-.3-.1-.4-.1-.1-.1-.2-.2-.2-.1-.1-.1-.1-.2-.1s-.2-.1-.3-.1c-.1 0-.3 0-.5-.1h-.7c-.3-.2-.7-.2-1-.2zm0 1.2h1.4c.1 0 .1 0 .2.1l.1.1c0 .1.1.1.1.2s0 .2.1.3v.9c0 .1 0 .2-.1.3 0 .1-.1.1-.1.2l-.1.1h-3s-.1 0-.1-.1l-.1-.1s0-.1-.1-.2v-1.4c0-.1 0-.2.1-.2l.1-.1s.1-.1.2-.1h1.3zm4.5-1.1v1.2h2.1v3.4h1.5v-3.4h2.1v-1.2h-5.7zm10.1-.1h-1.7c-.2 0-.3 0-.5.1-.1 0-.2.1-.3.1-.1 0-.2.1-.2.1-.1.1-.2.1-.2.3-.1.1-.1.2-.1.4s-.1.3-.1.6v1.7c0 .2 0 .4.1.6 0 .2.1.3.1.4.1.1.1.2.2.3.1.1.1.1.2.1s.2.1.3.1c.1 0 .3 0 .5.1H84c.2 0 .3 0 .5-.1.1 0 .2-.1.3-.1.1 0 .2-.1.2-.1.1-.1.2-.2.2-.3.1-.1.1-.2.1-.4s.1-.3.1-.6v-1.6c0-.2 0-.4-.1-.6 0-.2-.1-.3-.1-.4-.1-.1-.1-.2-.2-.2-.1-.1-.1-.1-.2-.1s-.2-.1-.3-.1c-.1 0-.3 0-.5-.1h-.7c-.3-.2-.6-.2-1-.2zm0 1.2h1.4c.1 0 .1 0 .2.1l.1.1c0 .1.1.1.1.2s0 .2.1.3v.9c0 .1 0 .2-.1.3 0 .1-.1.1-.1.2l-.1.1h-3s-.1 0-.1-.1l-.1-.1s0-.1-.1-.2v-1.4c0-.1 0-.2.1-.2l.1-.1s.1-.1.2-.1h1.3zm4.7 3.5h1.4V28h2.7s.1 0 .1.1l.1.1v.8h1.4v-1c0-.2-.1-.3-.1-.4-.1-.1-.1-.2-.3-.2-.1 0-.3-.1-.4-.1h.2c.1 0 .1 0 .2-.1l.1-.1c.1 0 .1-.1.1-.2s.1-.1.1-.2v-1.2c0-.1 0-.3-.1-.4 0-.1-.1-.2-.1-.3l-.2-.2-.1-.1s-.1 0-.1-.1h-5v4.8zm1.4-2.3v-1.1h2.8c.1 0 .1.1.1.2v.5c0 .1 0 .1-.1.2l-.1.1h-2.7v.1zm10.3.5v.3c0 .1 0 .1-.1.2 0 .1-.1.1-.1.1-.1 0-.2 0-.3.1h-2c-.1 0-.2-.1-.3-.1-.1-.1-.1-.1-.1-.2s0-.2-.1-.3v-1.1c0-.1 0-.3.1-.3 0-.1.1-.1.1-.2l.1-.1h2.3s.1 0 .1.1v.4h1.4V26c0-.3 0-.5-.1-.6 0-.2-.1-.3-.2-.4l-.3-.3c-.1 0-.2-.1-.3-.1-.1 0-.2 0-.4-.1h-3.1c-.2 0-.4 0-.6.1-.2 0-.3.1-.4.1-.1.1-.2.1-.2.2-.1.1-.1.2-.2.3 0 .1-.1.1-.1.2V28c0 .2 0 .3.1.4 0 .1.1.2.2.3.1.1.2.2.3.2.1 0 .2.1.3.1.1 0 .2.1.4.1h3.3c.2 0 .3 0 .4-.1.1 0 .2 0 .3-.1.2-.1.3-.1.4-.2.1-.1.2-.2.2-.4s.1-.4.1-.6v-.4h-1.2v.1zm2.5-2.8l2.6 3v1.6h1.5v-1.6l2.5-3H106l-1.4 1.8-1.5-1.8h-1.9zm12.1 2.8v.3c0 .1 0 .1-.1.2 0 .1-.1.1-.1.1-.1 0-.2 0-.3.1h-2c-.1 0-.2-.1-.3-.1-.1-.1-.1-.1-.1-.2s0-.2-.1-.3v-1.1c0-.1 0-.3.1-.3 0-.1.1-.1.1-.2l.1-.1h2.3s.1 0 .1.1v.4h1.4V26c0-.3 0-.5-.1-.6 0-.2-.1-.3-.2-.4l-.3-.3c-.1 0-.2-.1-.3-.1-.1 0-.2 0-.4-.1H110c-.2 0-.4 0-.6.1-.2 0-.3.1-.4.1-.1.1-.2.1-.2.2-.1.1-.1.2-.2.3 0 .1-.1.1-.1.2V28c0 .2 0 .3.1.4 0 .1.1.2.2.3.1.1.2.2.3.2.1 0 .2.1.3.1.1 0 .2.1.4.1h3.3c.2 0 .3 0 .4-.1.1 0 .2 0 .3-.1.2-.1.3-.1.4-.2.1-.1.2-.2.2-.4s.1-.4.1-.6v-.4h-1.2v.1zm2.9-2.8v4.6h4.8V28h-3.3v-3.4h-1.5zm6.1 0v4.6h5.1v-1.1h-3.8v-.7h3.5v-1h-3.5v-.7h3.7v-1.1h-5zm8.4 0v4.6h1.5v-1.7h3.2v1.7h1.5v-4.6h-1.5v1.7h-3.2v-1.7h-1.5zm7.8 0v4.6h5.1v-1.1h-3.8v-.7h3.5v-1h-3.5v-.7h3.7v-1.1h-5zm6.6 0v4.6h4.8V28h-3.3v-3.4h-1.5zm6.1 0v4.6h1.4v-3.5h.2l1.7 3.5h1.2l1.7-3.5h.2v3.5h1.4v-4.6h-2.5l-1.4 3-1.4-3h-2.5zm9.5 0v4.6h5.1v-1.1H162v-.7h3.5v-1H162v-.7h3.7v-1.1h-5zm6.3 0v1.2h2.1v3.4h1.5v-3.4h2.1v-1.2H167zm6.8 3.1v.7c0 .1.1.3.1.4.1.1.2.2.3.2.1 0 .2.1.3.1.1 0 .3.1.4.1h3.4c.1 0 .2 0 .3-.1.1-.1.3-.1.4-.3.1-.1.2-.3.2-.4 0-.2.1-.4.1-.7v-.6c0-.1-.1-.3-.1-.4-.1-.1-.2-.2-.3-.2-.1 0-.1-.1-.2-.1s-.2 0-.2-.1h-3.1c-.1 0-.1-.1-.1-.1v-.4s0-.1.1-.1c0 0 .1 0 .2-.1h2.3l.1.1v.3h1.4v-.7c0-.1-.1-.2-.1-.3-.1-.1-.1-.2-.2-.2s-.2-.1-.3-.1c-.1 0-.2-.1-.4-.1h-3.3c-.1 0-.2 0-.3.1-.1 0-.2.1-.2.1-.2.1-.3.2-.4.5-.1.2-.1.5-.1.8 0 .2 0 .4.1.6 0 .2.1.3.2.4.1.1.2.1.3.2.1 0 .2.1.4.1h3.1c.1 0 .1.1.2.1v.4c0 .1-.1.1-.1.1h-2.5s-.1 0-.1-.1v-.3h-1.9z" fill="#fff"/><path class="st0" d="M172.1 5.3h6.8l-4.7 4.6h-6.9z"/></svg>