<svg xmlns="http://www.w3.org/2000/svg" viewBox="0 0 512 512"><path d="M330.667 181.333H181.333c-5.867 0-10.667 4.8-10.667 10.667s4.8 10.667 10.667 10.667h149.333c5.867 0 10.667-4.8 10.667-10.667s-4.8-10.667-10.666-10.667z" fill="#313539"/><path d="M501.333 181.333H440.32a97.697 97.697 0 00-13.333-22.827C411.627 139.093 390.08 128 368 128H144c-22.08 0-43.52 11.093-58.987 30.507-5.44 6.933-10.027 14.613-13.333 22.827H10.667C4.8 181.333 0 186.133 0 192v96c0 5.867 4.8 10.667 10.667 10.667h69.867l11.627 50.347C96.853 369.6 115.2 384.106 136.32 384h239.253c21.12.107 39.36-14.4 44.16-34.987l11.627-50.347h69.973c5.867 0 10.667-4.8 10.667-10.667v-96c0-5.866-4.8-10.666-10.667-10.666zm-480 95.999v-74.666h44.16a84.314 84.314 0 00.64 33.493l9.6 41.173h-54.4zM352 362.666H160v-53.333h160v21.333c0 5.867 4.8 10.667 10.667 10.667s10.667-4.8 10.667-10.667v-21.333H352v53.333zm0-92.8V288H160v-18.24c0-1.707.213-2.667.213-2.773.96-.213 1.92-.427 2.88-.32h185.813c1.707 0 2.56.32 2.773.213.321.96.428 1.92.321 2.986zm73.067-38.506l-26.133 112.853c-2.56 10.88-12.16 18.453-23.36 18.453h-2.24V269.76c0-13.547-10.987-24.427-24.427-24.427H163.093c-15.253 0-24.427 9.173-24.427 24.427v92.907h-2.24c-11.093.107-20.8-7.573-23.36-18.453L86.827 231.36c-4.48-19.52 1.173-42.347 14.827-59.627 11.52-14.507 26.453-22.4 42.24-22.4H368c15.787 0 30.72 8 42.24 22.4 13.653 17.28 19.413 40.107 14.827 59.627zm65.6 45.973h-54.293l9.6-41.173a84.314 84.314 0 00.64-33.493h44.053v74.666z" fill="#313539"/></svg>