<svg xmlns="http://www.w3.org/2000/svg" width="53.029" height="53.029"><g fill="#313539"><path d="M53.029 18.865c0-8.366-11.646-14.92-26.515-14.92S0 10.499 0 18.865c0 .259.053.503.133.733A5.123 5.123 0 000 20.738c0 4.715 6.303 7.885 14.523 9.404l-.856 4.717a2.236 2.236 0 002.199 2.634 2.234 2.234 0 002.195-1.834l.886-4.874c1.744.188 3.533.311 5.333.365v4.119a2.233 2.233 0 004.465 0V31.15a68.363 68.363 0 006.658-.524l.913 5.033a2.234 2.234 0 002.593 1.798 2.236 2.236 0 001.799-2.598l-.902-4.979c7.568-1.604 13.217-4.683 13.217-9.145 0-.391-.049-.771-.133-1.14.085-.227.139-.471.139-.73zM26.515 8.412c6.452 0 13.357 1.645 17.688 4.358-4.92-1.641-11.318-2.481-17.688-2.481-6.369 0-12.769.841-17.688 2.481 4.33-2.714 11.235-4.358 17.688-4.358zm-.001 18.307c-13.676 0-22.047-3.872-22.047-5.979 0-2.109 8.371-5.982 22.047-5.982 13.675 0 22.046 3.873 22.046 5.982.001 2.107-8.371 5.979-22.046 5.979z"/><path d="M26.514 18.503a2.233 2.233 0 00-2.233 2.233v2.979a2.233 2.233 0 004.466 0v-2.979c0-1.234-1-2.233-2.233-2.233zm0 20.307c-1.233 0-2.233 1-2.233 2.232v5.776c0 1.231 1 2.229 2.233 2.229s2.233-.998 2.233-2.229v-5.774c0-1.234-1-2.234-2.233-2.234zm11.564-18.473a2.238 2.238 0 00-2.598-1.798 2.236 2.236 0 00-1.799 2.597l.532 2.929a2.233 2.233 0 104.393-.798l-.528-2.93zm3.69 20.319a2.24 2.24 0 00-2.597-1.799 2.233 2.233 0 00-1.799 2.598l1.052 5.796a2.235 2.235 0 002.595 1.798 2.236 2.236 0 001.799-2.598l-1.05-5.795zM18.901 18.54a2.235 2.235 0 00-2.597 1.798l-.532 2.931a2.235 2.235 0 002.2 2.633 2.234 2.234 0 002.195-1.834l.532-2.931a2.233 2.233 0 00-1.798-2.597zm-3.69 20.317a2.232 2.232 0 00-2.596 1.799l-1.053 5.796a2.235 2.235 0 004.395.799l1.052-5.796a2.234 2.234 0 00-1.798-2.598z"/></g></svg>