<svg version="1.1" id="Слой_1" xmlns="http://www.w3.org/2000/svg" x="0" y="0" viewBox="0 0 148.7 284.1" xml:space="preserve"><style>.st0{fill:none;stroke:#fff;stroke-width:11;stroke-miterlimit:10}</style><path class="st0" d="M32.7 94.6h110v183h-110z"/><path class="st0" d="M51.2 95.1v-3.7c0-11.8 9.5-21.3 21.3-21.3h30.4c11.8 0 21.3 9.5 21.3 21.3v3.5M71.4 70.1v-21c0-2.2 1.8-4 4-4h24.8c2.1 0 3.8 1.7 3.8 3.8V70m-71.6 60.6h110.3m-110 77.2h110m-110 45.3h110"/><circle cx="40.4" cy="36.6" r="6" fill="#fff"/><circle cx="6.9" cy="36.1" r="6" fill="#fff"/><circle cx="22.9" cy="52.1" r="6" fill="#fff"/><circle cx="6.9" cy="64.1" r="6" fill="#fff"/><circle cx="22.9" cy="21.1" r="6" fill="#fff"/><circle cx="6.9" cy="7.1" r="6" fill="#fff"/></svg>