<?xml version="1.0" encoding="iso-8859-1"?>
<!-- Generator: Adobe Illustrator 19.0.0, SVG Export Plug-In . SVG Version: 6.00 Build 0)  -->
<svg version="1.1" id="Capa_1" xmlns="http://www.w3.org/2000/svg" xmlns:xlink="http://www.w3.org/1999/xlink" x="0px" y="0px"
	 viewBox="0 0 512 512" style="enable-background:new 0 0 512 512;" xml:space="preserve">
<g>
	<g>
		<path fill="#ffffff" d="M306,311.386V0H181v311.386c-29.502,20.434-47.5,54.373-47.5,90.565c0,60.681,49.346,110.049,110,110.049
			s110-49.368,110-110.049C353.5,365.759,335.502,331.819,306,311.386z M243.5,482c-44.112,0-80-35.91-80-80.049
			c0-53.088,45.907-72.166,47.5-73.682V30h65v298.27c1.83,1.741,47.5,20.373,47.5,73.682C323.5,446.09,287.612,482,243.5,482z"/>
	</g>
</g>
<g>
	<g>
		<path fill="#ffffff"  d="M258.5,343.85V160.825h-30V343.85c-25.849,6.677-45,30.195-45,58.101c0,33.084,26.916,60,60,60s60-26.916,60-60
			C303.5,374.045,284.349,350.527,258.5,343.85z M243.5,431.951c-16.542,0-30-13.458-30-30s13.458-30,30-30s30,13.458,30,30
			S260.042,431.951,243.5,431.951z"/>
	</g>
</g>
<g>
	<g>
		<rect fill="#ffffff" x="331" y="51.03" width="47.5" height="30"/>
	</g>
</g>
<g>
	<g>
		<rect fill="#ffffff"  x="331" y="153.08" width="47.5" height="30"/>
	</g>
</g>
<g>
	<g>
		<rect fill="#ffffff"  x="331" y="255.13" width="47.5" height="30"/>
	</g>
</g>

</svg>
