<svg xmlns="http://www.w3.org/2000/svg" viewBox="0 0 512 512"><path fill="#fff" d="M306 311.386V0H181v311.386c-29.502 20.434-47.5 54.373-47.5 90.565 0 60.681 49.346 110.049 110 110.049s110-49.368 110-110.049c0-36.192-17.998-70.132-47.5-90.565zM243.5 482c-44.112 0-80-35.91-80-80.049 0-53.088 45.907-72.166 47.5-73.682V30h65v298.27c1.83 1.741 47.5 20.373 47.5 73.682 0 44.138-35.888 80.048-80 80.048z"/><path fill="#fff" d="M258.5 343.85V160.825h-30V343.85c-25.849 6.677-45 30.195-45 58.101 0 33.084 26.916 60 60 60s60-26.916 60-60c0-27.906-19.151-51.424-45-58.101zm-15 88.101c-16.542 0-30-13.458-30-30s13.458-30 30-30 30 13.458 30 30-13.458 30-30 30zM331 51.03h47.5v30H331zm0 102.05h47.5v30H331zm0 102.05h47.5v30H331z"/></svg>